<?xml version="1.0" encoding="UTF-8"?>
<!--Generator: Apple Native CoreSVG 129-->
<!DOCTYPE svg
PUBLIC "-//W3C//DTD SVG 1.1//EN"
       "http://www.w3.org/Graphics/SVG/1.1/DTD/svg11.dtd">
<svg version="1.1" xmlns="http://www.w3.org/2000/svg" xmlns:xlink="http://www.w3.org/1999/xlink" width="3300" height="2200">
 <!--glyph: "uni100A6A.medium", point size: 100.000000, font version: "Version 16.0d9e1", template writer version: "8"-->
 <g id="Notes">
  <rect height="2200" id="artboard" style="fill:white;opacity:1" width="3300" x="0" y="0"/>
  <line id="" style="fill:none;stroke:black;opacity:1;stroke-width:0.5;" x1="263" x2="3036" y1="292" y2="292"/>
  <text style="stroke:none;fill:black;font-family:-apple-system,&quot;SF Pro Display&quot;,&quot;SF Pro Text&quot;,Helvetica,sans-serif;font-weight:bold;" transform="matrix(1 0 0 1 263 322)">Weight/Scale Variations</text>
  <text style="stroke:none;fill:black;font-family:-apple-system,&quot;SF Pro Display&quot;,&quot;SF Pro Text&quot;,Helvetica,sans-serif;text-anchor:middle;" transform="matrix(1 0 0 1 559.711 322)">Ultralight</text>
  <text style="stroke:none;fill:black;font-family:-apple-system,&quot;SF Pro Display&quot;,&quot;SF Pro Text&quot;,Helvetica,sans-serif;text-anchor:middle;" transform="matrix(1 0 0 1 856.422 322)">Thin</text>
  <text style="stroke:none;fill:black;font-family:-apple-system,&quot;SF Pro Display&quot;,&quot;SF Pro Text&quot;,Helvetica,sans-serif;text-anchor:middle;" transform="matrix(1 0 0 1 1153.13 322)">Light</text>
  <text style="stroke:none;fill:black;font-family:-apple-system,&quot;SF Pro Display&quot;,&quot;SF Pro Text&quot;,Helvetica,sans-serif;text-anchor:middle;" transform="matrix(1 0 0 1 1449.84 322)">Regular</text>
  <text style="stroke:none;fill:black;font-family:-apple-system,&quot;SF Pro Display&quot;,&quot;SF Pro Text&quot;,Helvetica,sans-serif;text-anchor:middle;" transform="matrix(1 0 0 1 1746.56 322)">Medium</text>
  <text style="stroke:none;fill:black;font-family:-apple-system,&quot;SF Pro Display&quot;,&quot;SF Pro Text&quot;,Helvetica,sans-serif;text-anchor:middle;" transform="matrix(1 0 0 1 2043.27 322)">Semibold</text>
  <text style="stroke:none;fill:black;font-family:-apple-system,&quot;SF Pro Display&quot;,&quot;SF Pro Text&quot;,Helvetica,sans-serif;text-anchor:middle;" transform="matrix(1 0 0 1 2339.98 322)">Bold</text>
  <text style="stroke:none;fill:black;font-family:-apple-system,&quot;SF Pro Display&quot;,&quot;SF Pro Text&quot;,Helvetica,sans-serif;text-anchor:middle;" transform="matrix(1 0 0 1 2636.69 322)">Heavy</text>
  <text style="stroke:none;fill:black;font-family:-apple-system,&quot;SF Pro Display&quot;,&quot;SF Pro Text&quot;,Helvetica,sans-serif;text-anchor:middle;" transform="matrix(1 0 0 1 2933.4 322)">Black</text>
  <line id="" style="fill:none;stroke:black;opacity:1;stroke-width:0.5;" x1="263" x2="3036" y1="1903" y2="1903"/>
  <g id="" transform="matrix(1 0 0 1 263 1933)">
   <path d="M 9.24805 0.830078 C 13.5547 0.830078 17.1387 -2.74414 17.1387 -7.05078 C 17.1387 -11.3574 13.5449 -14.9316 9.23828 -14.9316 C 4.94141 -14.9316 1.36719 -11.3574 1.36719 -7.05078 C 1.36719 -2.74414 4.95117 0.830078 9.24805 0.830078 Z M 9.24805 -0.654297 C 5.70312 -0.654297 2.87109 -3.49609 2.87109 -7.05078 C 2.87109 -10.6055 5.69336 -13.4473 9.23828 -13.4473 C 12.793 -13.4473 15.6348 -10.6055 15.6445 -7.05078 C 15.6543 -3.49609 12.8027 -0.654297 9.24805 -0.654297 Z M 9.22852 -3.62305 C 9.69727 -3.62305 9.9707 -3.93555 9.9707 -4.45312 L 9.9707 -6.31836 L 12.002 -6.31836 C 12.5 -6.31836 12.832 -6.57227 12.832 -7.04102 C 12.832 -7.51953 12.5195 -7.7832 12.002 -7.7832 L 9.9707 -7.7832 L 9.9707 -9.81445 C 9.9707 -10.332 9.69727 -10.6543 9.22852 -10.6543 C 8.75977 -10.6543 8.50586 -10.3125 8.50586 -9.81445 L 8.50586 -7.7832 L 6.49414 -7.7832 C 5.97656 -7.7832 5.64453 -7.51953 5.64453 -7.04102 C 5.64453 -6.57227 5.99609 -6.31836 6.49414 -6.31836 L 8.50586 -6.31836 L 8.50586 -4.45312 C 8.50586 -3.95508 8.75977 -3.62305 9.22852 -3.62305 Z"/>
  </g>
  <g id="" transform="matrix(1 0 0 1 281.506 1933)">
   <path d="M 11.709 2.91016 C 17.1582 2.91016 21.6699 -1.61133 21.6699 -7.05078 C 21.6699 -12.5 17.1484 -17.0117 11.6992 -17.0117 C 6.25977 -17.0117 1.74805 -12.5 1.74805 -7.05078 C 1.74805 -1.61133 6.26953 2.91016 11.709 2.91016 Z M 11.709 1.25 C 7.09961 1.25 3.41797 -2.44141 3.41797 -7.05078 C 3.41797 -11.6602 7.08984 -15.3516 11.6992 -15.3516 C 16.3086 -15.3516 20 -11.6602 20.0098 -7.05078 C 20.0195 -2.44141 16.3184 1.25 11.709 1.25 Z M 11.6797 -2.66602 C 12.207 -2.66602 12.5098 -3.01758 12.5098 -3.59375 L 12.5098 -6.23047 L 15.3223 -6.23047 C 15.8691 -6.23047 16.25 -6.51367 16.25 -7.03125 C 16.25 -7.55859 15.8887 -7.86133 15.3223 -7.86133 L 12.5098 -7.86133 L 12.5098 -10.6836 C 12.5098 -11.25 12.207 -11.6113 11.6797 -11.6113 C 11.1621 -11.6113 10.8789 -11.2305 10.8789 -10.6836 L 10.8789 -7.86133 L 8.07617 -7.86133 C 7.50977 -7.86133 7.13867 -7.55859 7.13867 -7.03125 C 7.13867 -6.51367 7.5293 -6.23047 8.07617 -6.23047 L 10.8789 -6.23047 L 10.8789 -3.59375 C 10.8789 -3.03711 11.1621 -2.66602 11.6797 -2.66602 Z"/>
  </g>
  <g id="" transform="matrix(1 0 0 1 304.924 1933)">
   <path d="M 14.9707 5.66406 C 21.9336 5.66406 27.6953 -0.0976562 27.6953 -7.05078 C 27.6953 -14.0137 21.9238 -19.7754 14.9609 -19.7754 C 8.00781 -19.7754 2.25586 -14.0137 2.25586 -7.05078 C 2.25586 -0.0976562 8.01758 5.66406 14.9707 5.66406 Z M 14.9707 3.84766 C 8.93555 3.84766 4.08203 -1.01562 4.08203 -7.05078 C 4.08203 -13.0957 8.92578 -17.9492 14.9609 -17.9492 C 21.0059 -17.9492 25.8594 -13.0957 25.8691 -7.05078 C 25.8789 -1.01562 21.0156 3.84766 14.9707 3.84766 Z M 14.9414 -1.38672 C 15.5176 -1.38672 15.8594 -1.77734 15.8594 -2.38281 L 15.8594 -6.13281 L 19.7754 -6.13281 C 20.3711 -6.13281 20.7812 -6.46484 20.7812 -7.02148 C 20.7812 -7.59766 20.3906 -7.93945 19.7754 -7.93945 L 15.8594 -7.93945 L 15.8594 -11.8652 C 15.8594 -12.4805 15.5176 -12.8711 14.9414 -12.8711 C 14.375 -12.8711 14.0527 -12.4609 14.0527 -11.8652 L 14.0527 -7.93945 L 10.1465 -7.93945 C 9.53125 -7.93945 9.13086 -7.59766 9.13086 -7.02148 C 9.13086 -6.46484 9.55078 -6.13281 10.1465 -6.13281 L 14.0527 -6.13281 L 14.0527 -2.38281 C 14.0527 -1.79688 14.375 -1.38672 14.9414 -1.38672 Z"/>
  </g>
  <text style="stroke:none;fill:black;font-family:-apple-system,&quot;SF Pro Display&quot;,&quot;SF Pro Text&quot;,Helvetica,sans-serif;font-weight:bold;" transform="matrix(1 0 0 1 263 1953)">Design Variations</text>
  <text style="stroke:none;fill:black;font-family:-apple-system,&quot;SF Pro Display&quot;,&quot;SF Pro Text&quot;,Helvetica,sans-serif;" transform="matrix(1 0 0 1 263 1971)">Symbols are supported in up to nine weights and three scales.</text>
  <text style="stroke:none;fill:black;font-family:-apple-system,&quot;SF Pro Display&quot;,&quot;SF Pro Text&quot;,Helvetica,sans-serif;" transform="matrix(1 0 0 1 263 1989)">For optimal layout with text and other symbols, vertically align</text>
  <text style="stroke:none;fill:black;font-family:-apple-system,&quot;SF Pro Display&quot;,&quot;SF Pro Text&quot;,Helvetica,sans-serif;" transform="matrix(1 0 0 1 263 2007)">symbols with the adjacent text.</text>
  <line id="" style="fill:none;stroke:#00AEEF;stroke-width:0.5;opacity:1.0;" x1="776" x2="776" y1="1919" y2="1933"/>
  <g id="" transform="matrix(1 0 0 1 776 1933)">
   <path d="M 3.31055 0.126953 C 3.82812 0.126953 4.08203 -0.0683594 4.26758 -0.605469 L 5.52734 -4.0625 L 11.2891 -4.0625 L 12.5488 -0.605469 C 12.7344 -0.0683594 12.9883 0.126953 13.4961 0.126953 C 14.0137 0.126953 14.3457 -0.185547 14.3457 -0.673828 C 14.3457 -0.839844 14.3164 -0.986328 14.2383 -1.20117 L 9.6582 -13.3887 C 9.43359 -13.9941 9.0332 -14.2871 8.4082 -14.2871 C 7.80273 -14.2871 7.39258 -13.9941 7.17773 -13.3984 L 2.59766 -1.19141 C 2.51953 -0.976562 2.49023 -0.830078 2.49023 -0.664062 C 2.49023 -0.175781 2.80273 0.126953 3.31055 0.126953 Z M 6.00586 -5.53711 L 8.37891 -12.1094 L 8.42773 -12.1094 L 10.8008 -5.53711 Z"/>
  </g>
  <line id="" style="fill:none;stroke:#00AEEF;stroke-width:0.5;opacity:1.0;" x1="792.836" x2="792.836" y1="1919" y2="1933"/>
  <text style="stroke:none;fill:black;font-family:-apple-system,&quot;SF Pro Display&quot;,&quot;SF Pro Text&quot;,Helvetica,sans-serif;font-weight:bold;" transform="matrix(1 0 0 1 776 1953)">Margins</text>
  <text style="stroke:none;fill:black;font-family:-apple-system,&quot;SF Pro Display&quot;,&quot;SF Pro Text&quot;,Helvetica,sans-serif;" transform="matrix(1 0 0 1 776 1971)">Leading and trailing margins on the left and right side of each symbol</text>
  <text style="stroke:none;fill:black;font-family:-apple-system,&quot;SF Pro Display&quot;,&quot;SF Pro Text&quot;,Helvetica,sans-serif;" transform="matrix(1 0 0 1 776 1989)">can be adjusted by modifying the x-location of the margin guidelines.</text>
  <text style="stroke:none;fill:black;font-family:-apple-system,&quot;SF Pro Display&quot;,&quot;SF Pro Text&quot;,Helvetica,sans-serif;" transform="matrix(1 0 0 1 776 2007)">Modifications are automatically applied proportionally to all</text>
  <text style="stroke:none;fill:black;font-family:-apple-system,&quot;SF Pro Display&quot;,&quot;SF Pro Text&quot;,Helvetica,sans-serif;" transform="matrix(1 0 0 1 776 2025)">scales and weights.</text>
  <g id="" transform="matrix(1 0 0 1 1289 1933)">
   <path d="M 2.8418 1.86523 L 4.54102 3.57422 C 5.40039 4.44336 6.38672 4.38477 7.31445 3.35938 L 17.4902 -7.85156 C 17.7539 -7.76367 18.0273 -7.7832 18.3398 -7.8418 L 19.4043 -8.03711 L 20.0684 -7.36328 L 20.0293 -6.80664 C 19.9902 -6.30859 20.1172 -5.92773 20.6055 -5.44922 L 21.3672 -4.70703 C 21.8457 -4.22852 22.4609 -4.19922 22.9297 -4.66797 L 25.8398 -7.58789 C 26.3086 -8.05664 26.2891 -8.65234 25.8105 -9.13086 L 25.0391 -9.89258 C 24.5605 -10.3711 24.1895 -10.5273 23.7109 -10.4883 L 23.1348 -10.4395 L 22.4902 -11.0742 L 22.7344 -12.1973 C 22.8613 -12.7637 22.7051 -13.2031 22.1191 -13.7891 L 19.9219 -15.9766 C 16.582 -19.2969 12.1484 -19.2188 9.25781 -16.3281 C 8.83789 -15.918 8.80859 -15.3418 9.04297 -14.9512 C 9.27734 -14.5898 9.73633 -14.3555 10.3809 -14.5215 C 11.8457 -14.8633 13.3691 -14.9219 14.7949 -13.9844 L 14.209 -12.5293 C 14.0137 -12.0508 13.9844 -11.6504 14.1113 -11.2891 L 3.04688 -0.898438 C 2.06055 0.0195312 1.98242 0.996094 2.8418 1.86523 Z M 10.752 -15.957 C 13.1836 -17.7344 16.4746 -17.4316 18.7012 -15.2051 L 21.1328 -12.793 C 21.3672 -12.5586 21.4062 -12.373 21.3379 -12.0312 L 21.0156 -10.5469 L 22.5195 -9.0625 L 23.5059 -9.12109 C 23.7598 -9.13086 23.8379 -9.11133 24.0332 -8.91602 L 24.6094 -8.33984 L 22.168 -5.89844 L 21.5918 -6.47461 C 21.3965 -6.66992 21.3672 -6.74805 21.377 -7.01172 L 21.4453 -7.98828 L 19.9512 -9.47266 L 18.4277 -9.21875 C 18.1055 -9.15039 17.959 -9.17969 17.7148 -9.41406 L 15.7129 -11.416 C 15.459 -11.6504 15.4297 -11.8164 15.5859 -12.1875 L 16.4648 -14.2773 C 14.9023 -15.7324 12.8711 -16.3574 10.8398 -15.7617 C 10.6836 -15.7227 10.625 -15.8496 10.752 -15.957 Z M 5.27344 2.30469 L 4.10156 1.14258 C 3.63281 0.683594 3.74023 0.341797 4.14062 -0.0195312 L 14.9512 -10.1953 L 16.416 -8.71094 L 6.42578 2.27539 C 6.07422 2.67578 5.74219 2.77344 5.27344 2.30469 Z"/>
  </g>
  <text style="stroke:none;fill:black;font-family:-apple-system,&quot;SF Pro Display&quot;,&quot;SF Pro Text&quot;,Helvetica,sans-serif;font-weight:bold;" transform="matrix(1 0 0 1 1289 1953)">Exporting</text>
  <text style="stroke:none;fill:black;font-family:-apple-system,&quot;SF Pro Display&quot;,&quot;SF Pro Text&quot;,Helvetica,sans-serif;" transform="matrix(1 0 0 1 1289 1971)">Symbols should be outlined when exporting to ensure the</text>
  <text style="stroke:none;fill:black;font-family:-apple-system,&quot;SF Pro Display&quot;,&quot;SF Pro Text&quot;,Helvetica,sans-serif;" transform="matrix(1 0 0 1 1289 1989)">design is preserved when submitting to Xcode.</text>
  <text id="template-version" style="stroke:none;fill:black;font-family:-apple-system,&quot;SF Pro Display&quot;,&quot;SF Pro Text&quot;,Helvetica,sans-serif;text-anchor:end;" transform="matrix(1 0 0 1 3036 1933)">Template v.2.0</text>
  <text style="stroke:none;fill:black;font-family:-apple-system,&quot;SF Pro Display&quot;,&quot;SF Pro Text&quot;,Helvetica,sans-serif;text-anchor:end;" transform="matrix(1 0 0 1 3036 1951)">Requires Xcode 12 or greater</text>
  <text style="stroke:none;fill:black;font-family:-apple-system,&quot;SF Pro Display&quot;,&quot;SF Pro Text&quot;,Helvetica,sans-serif;text-anchor:end;" transform="matrix(1 0 0 1 3036 1969)">Generated from forward.frame</text>
  <text style="stroke:none;fill:black;font-family:-apple-system,&quot;SF Pro Display&quot;,&quot;SF Pro Text&quot;,Helvetica,sans-serif;text-anchor:end;" transform="matrix(1 0 0 1 3036 1987)">Typeset at 100 points</text>
  <text style="stroke:none;fill:black;font-family:-apple-system,&quot;SF Pro Display&quot;,&quot;SF Pro Text&quot;,Helvetica,sans-serif;" transform="matrix(1 0 0 1 263 726)">Small</text>
  <text style="stroke:none;fill:black;font-family:-apple-system,&quot;SF Pro Display&quot;,&quot;SF Pro Text&quot;,Helvetica,sans-serif;" transform="matrix(1 0 0 1 263 1156)">Medium</text>
  <text style="stroke:none;fill:black;font-family:-apple-system,&quot;SF Pro Display&quot;,&quot;SF Pro Text&quot;,Helvetica,sans-serif;" transform="matrix(1 0 0 1 263 1586)">Large</text>
 </g>
 <g id="Guides">
  <g id="H-reference" style="fill:#27AAE1;stroke:none;" transform="matrix(1 0 0 1 339 696)">
   <path d="M 0.976562 0 L 3.66211 0 L 12.9883 -24.4629 L 45.7031 -24.4629 L 55.0781 0 L 57.7148 0 L 30.6152 -70.459 L 28.125 -70.459 Z M 29.2969 -67.1387 L 29.3945 -67.1387 L 44.873 -26.709 L 13.8672 -26.709 Z"/>
  </g>
  <line id="Baseline-S" style="fill:none;stroke:#27AAE1;opacity:1;stroke-width:0.5;" x1="263" x2="3036" y1="696" y2="696"/>
  <line id="Capline-S" style="fill:none;stroke:#27AAE1;opacity:1;stroke-width:0.5;" x1="263" x2="3036" y1="625.541" y2="625.541"/>
  <g id="H-reference" style="fill:#27AAE1;stroke:none;" transform="matrix(1 0 0 1 339 1126)">
   <path d="M 0.976562 0 L 3.66211 0 L 12.9883 -24.4629 L 45.7031 -24.4629 L 55.0781 0 L 57.7148 0 L 30.6152 -70.459 L 28.125 -70.459 Z M 29.2969 -67.1387 L 29.3945 -67.1387 L 44.873 -26.709 L 13.8672 -26.709 Z"/>
  </g>
  <line id="Baseline-M" style="fill:none;stroke:#27AAE1;opacity:1;stroke-width:0.5;" x1="263" x2="3036" y1="1126" y2="1126"/>
  <line id="Capline-M" style="fill:none;stroke:#27AAE1;opacity:1;stroke-width:0.5;" x1="263" x2="3036" y1="1055.54" y2="1055.54"/>
  <g id="H-reference" style="fill:#27AAE1;stroke:none;" transform="matrix(1 0 0 1 339 1556)">
   <path d="M 0.976562 0 L 3.66211 0 L 12.9883 -24.4629 L 45.7031 -24.4629 L 55.0781 0 L 57.7148 0 L 30.6152 -70.459 L 28.125 -70.459 Z M 29.2969 -67.1387 L 29.3945 -67.1387 L 44.873 -26.709 L 13.8672 -26.709 Z"/>
  </g>
  <line id="Baseline-L" style="fill:none;stroke:#27AAE1;opacity:1;stroke-width:0.5;" x1="263" x2="3036" y1="1556" y2="1556"/>
  <line id="Capline-L" style="fill:none;stroke:#27AAE1;opacity:1;stroke-width:0.5;" x1="263" x2="3036" y1="1485.54" y2="1485.54"/>
  <line id="left-margin" style="fill:none;stroke:#00AEEF;stroke-width:0.5;opacity:1.0;" x1="1389.79" x2="1389.79" y1="1030.79" y2="1150.12"/>
  <line id="right-margin" style="fill:none;stroke:#00AEEF;stroke-width:0.5;opacity:1.0;" x1="1509.9" x2="1509.9" y1="1030.79" y2="1150.12"/>
 </g>
 <g id="Symbols">
  <g id="Black-L" transform="matrix(1 0 0 1 2845.58 1556)">
   <path d="M 39.9902 21.4844 C 47.0703 21.4844 52.2461 16.4062 52.2461 9.57031 L 52.2461 -80.0293 C 52.2461 -86.8164 47.0703 -91.8945 39.9902 -91.8945 C 32.9102 -91.8945 27.7344 -86.8164 27.7344 -80.0293 L 27.7344 9.57031 C 27.7344 16.4062 32.9102 21.4844 39.9902 21.4844 Z M 82.373 19.4824 C 85.8398 19.4824 89.0137 18.7012 92.334 16.748 L 157.861 -21.4844 C 163.574 -24.8535 167.578 -29.1016 167.578 -35.3027 C 167.578 -41.5039 163.77 -45.4102 157.861 -48.877 L 92.334 -87.1582 C 88.9648 -89.0625 85.791 -89.8438 82.2754 -89.8438 C 74.8047 -89.8438 68.6523 -84.3262 68.6523 -74.5605 L 68.6523 4.19922 C 68.6523 13.916 74.9512 19.4824 82.373 19.4824 Z M 89.1602 -4.3457 C 88.7695 -4.3457 88.5742 -4.58984 88.5742 -4.98047 L 88.5742 -65.4297 C 88.5742 -65.8203 88.7695 -66.0645 89.2578 -66.0645 C 89.4531 -66.0645 89.6484 -66.0156 89.9414 -65.8203 L 141.455 -35.9375 C 141.748 -35.791 141.895 -35.6445 141.895 -35.2539 C 141.895 -34.8633 141.699 -34.668 141.455 -34.5215 L 89.9414 -4.54102 C 89.7461 -4.44336 89.4531 -4.3457 89.1602 -4.3457 Z"/>
  </g>
  <g id="Heavy-L" transform="matrix(1 0 0 1 2551.95 1556)">
   <path d="M 37.6465 20.166 C 43.6523 20.166 48.0957 15.8203 48.0957 10.0586 L 48.0957 -80.4688 C 48.0957 -86.2793 43.6523 -90.5762 37.6465 -90.5762 C 31.6406 -90.5762 27.1973 -86.2793 27.1973 -80.4688 L 27.1973 10.0586 C 27.1973 15.8203 31.6406 20.166 37.6465 20.166 Z M 77.8809 18.0664 C 81.1035 18.0664 83.9844 17.2363 87.0605 15.4785 L 152.393 -22.7539 C 157.666 -25.8301 161.182 -29.7363 161.182 -35.3027 C 161.182 -40.8203 157.812 -44.4336 152.393 -47.6562 L 87.0605 -85.8398 C 83.9355 -87.6465 81.0547 -88.4277 77.7832 -88.4277 C 71.0449 -88.4277 65.3809 -83.3984 65.3809 -74.3652 L 65.3809 4.00391 C 65.3809 12.9883 71.1426 18.0664 77.8809 18.0664 Z M 83.5938 -2.44141 C 83.0566 -2.44141 82.666 -2.7832 82.666 -3.51562 L 82.666 -66.8945 C 82.666 -67.5781 83.0566 -67.9199 83.6426 -67.9199 C 83.9355 -67.9199 84.2285 -67.8711 84.6191 -67.627 L 138.379 -36.2305 C 138.867 -35.9863 139.062 -35.7422 139.062 -35.2539 C 139.062 -34.7168 138.818 -34.4727 138.379 -34.1797 L 84.6191 -2.7832 C 84.2773 -2.58789 83.9355 -2.44141 83.5938 -2.44141 Z"/>
  </g>
  <g id="Bold-L" transform="matrix(1 0 0 1 2258.65 1556)">
   <path d="M 35.0586 18.75 C 39.8438 18.75 43.457 15.2344 43.457 10.5469 L 43.457 -80.957 C 43.457 -85.6445 39.8438 -89.1113 35.0586 -89.1113 C 30.2246 -89.1113 26.6113 -85.6445 26.6113 -80.957 L 26.6113 10.5469 C 26.6113 15.2344 30.2246 18.75 35.0586 18.75 Z M 72.8516 16.4551 C 75.7812 16.4551 78.418 15.625 81.2012 14.0137 L 146.24 -24.1211 C 151.074 -26.9531 153.955 -30.4688 153.955 -35.2539 C 153.955 -40.0391 151.172 -43.3594 146.24 -46.2891 L 81.2012 -84.4238 C 78.3691 -86.0352 75.7324 -86.8652 72.8027 -86.8652 C 66.7969 -86.8652 61.7676 -82.373 61.7676 -74.1699 L 61.7676 3.75977 C 61.7676 11.9629 66.8457 16.4551 72.8516 16.4551 Z M 77.3438 -0.341797 C 76.6602 -0.341797 76.0254 -0.830078 76.0254 -1.85547 L 76.0254 -68.5547 C 76.0254 -69.5801 76.6602 -70.0195 77.3926 -70.0195 C 77.7344 -70.0195 78.125 -69.9219 78.6621 -69.6289 L 134.961 -36.5723 C 135.645 -36.1816 135.938 -35.8887 135.938 -35.2539 C 135.938 -34.5703 135.596 -34.2285 134.961 -33.8379 L 78.6621 -0.78125 C 78.1738 -0.488281 77.7344 -0.341797 77.3438 -0.341797 Z"/>
  </g>
  <g id="Semibold-L" transform="matrix(1 0 0 1 1964.31 1556)">
   <path d="M 33.252 17.7246 C 37.207 17.7246 40.2832 14.7949 40.2832 10.8887 L 40.2832 -81.2988 C 40.2832 -85.1562 37.207 -88.1348 33.252 -88.1348 C 29.248 -88.1348 26.2207 -85.1562 26.2207 -81.2988 L 26.2207 10.8887 C 26.2207 14.7949 29.248 17.7246 33.252 17.7246 Z M 69.3848 15.3809 C 72.1191 15.3809 74.5605 14.5508 77.1484 12.9883 L 142.041 -25.0488 C 146.533 -27.6855 149.023 -31.0059 149.023 -35.2539 C 149.023 -39.502 146.582 -42.627 142.041 -45.3125 L 77.1484 -83.3984 C 74.5117 -84.9609 72.1191 -85.7422 69.3359 -85.7422 C 63.916 -85.7422 59.2773 -81.6406 59.2773 -74.0234 L 59.2773 3.61328 C 59.2773 11.2305 63.916 15.3809 69.3848 15.3809 Z M 73.0469 1.07422 C 72.2656 1.07422 71.4844 0.537109 71.4844 -0.732422 L 71.4844 -69.6777 C 71.4844 -70.9473 72.2656 -71.4844 73.0469 -71.4844 C 73.4863 -71.4844 73.9258 -71.3379 74.5605 -70.9961 L 132.568 -36.8164 C 133.398 -36.377 133.789 -35.9863 133.789 -35.2051 C 133.789 -34.4727 133.35 -34.0332 132.568 -33.5938 L 74.5605 0.585938 C 73.9746 0.927734 73.4863 1.07422 73.0469 1.07422 Z"/>
  </g>
  <g id="Medium-L" transform="matrix(1 0 0 1 1669.41 1556)">
   <path d="M 31.8848 16.9922 C 35.2051 16.9922 37.8418 14.4531 37.8418 11.1816 L 37.8418 -81.543 C 37.8418 -84.8633 35.2051 -87.3535 31.8848 -87.3535 C 28.5645 -87.3535 25.9277 -84.8633 25.9277 -81.543 L 25.9277 11.1816 C 25.9277 14.4531 28.5645 16.9922 31.8848 16.9922 Z M 66.748 14.5508 C 69.3359 14.5508 71.6309 13.7207 74.1211 12.2559 L 138.818 -25.7812 C 143.066 -28.2715 145.264 -31.3477 145.264 -35.2539 C 145.264 -39.1113 143.115 -42.0898 138.818 -44.6289 L 74.1211 -82.666 C 71.582 -84.082 69.3359 -84.9121 66.748 -84.9121 C 61.6699 -84.9121 57.373 -81.1035 57.373 -73.9258 L 57.373 3.51562 C 57.373 10.6934 61.7188 14.5508 66.748 14.5508 Z M 69.7754 2.19727 C 68.8965 2.19727 68.0176 1.5625 68.0176 0.146484 L 68.0176 -70.5566 C 68.0176 -71.9727 68.8965 -72.5586 69.7754 -72.5586 C 70.2637 -72.5586 70.752 -72.4609 71.4355 -72.0215 L 130.811 -37.0117 C 131.689 -36.4746 132.129 -36.084 132.129 -35.2051 C 132.129 -34.375 131.641 -33.8867 130.811 -33.3984 L 71.4355 1.61133 C 70.8008 2.05078 70.2637 2.19727 69.7754 2.19727 Z"/>
  </g>
  <g id="Regular-L" transform="matrix(1 0 0 1 1375.04 1556)">
   <path d="M 30.0781 15.9668 C 32.6172 15.9668 34.668 14.0137 34.668 11.5234 L 34.668 -81.8848 C 34.668 -84.4238 32.6172 -86.377 30.0781 -86.377 C 27.5879 -86.377 25.5371 -84.4238 25.5371 -81.8848 L 25.5371 11.5234 C 25.5371 14.0137 27.5879 15.9668 30.0781 15.9668 Z M 63.3301 13.4277 C 65.7227 13.4277 67.7734 12.5977 70.1172 11.2793 L 134.668 -26.709 C 138.574 -29.0527 140.332 -31.8848 140.332 -35.2051 C 140.332 -38.5742 138.574 -41.3574 134.668 -43.7012 L 70.1172 -81.6895 C 67.7734 -83.0078 65.7227 -83.8379 63.3301 -83.8379 C 58.7891 -83.8379 54.8828 -80.4199 54.8828 -73.7793 L 54.8828 3.36914 C 54.8828 10.0098 58.7891 13.4277 63.3301 13.4277 Z M 65.5273 3.61328 C 64.5508 3.61328 63.4766 2.92969 63.4766 1.26953 L 63.4766 -71.6797 C 63.4766 -73.3398 64.5508 -74.0234 65.5273 -74.0234 C 66.0156 -74.0234 66.6016 -73.877 67.3828 -73.3887 L 128.467 -37.207 C 129.492 -36.6211 130.029 -36.1816 130.029 -35.2051 C 130.029 -34.2773 129.443 -33.7402 128.467 -33.2031 L 67.3828 2.97852 C 66.6016 3.4668 66.0156 3.61328 65.5273 3.61328 Z"/>
  </g>
  <g id="Light-L" transform="matrix(1 0 0 1 1081.99 1556)">
   <path d="M 24.5605 14.7949 C 26.4648 14.7949 28.0273 13.2812 28.0273 11.377 L 28.0273 -81.7871 C 28.0273 -83.6914 26.4648 -85.1562 24.5605 -85.1562 C 22.6562 -85.1562 21.0938 -83.6914 21.0938 -81.7871 L 21.0938 11.377 C 21.0938 13.2812 22.6562 14.7949 24.5605 14.7949 Z M 56.3477 12.2559 C 58.4961 12.2559 60.498 11.4258 62.4512 10.3027 L 127.49 -27.9785 C 130.664 -29.834 132.227 -32.2266 132.227 -35.2539 C 132.227 -38.2324 130.713 -40.5273 127.49 -42.4805 L 62.4512 -80.7129 C 60.4492 -81.8359 58.4961 -82.7148 56.3477 -82.7148 C 52.3926 -82.7148 48.8281 -79.6875 48.8281 -73.6328 L 48.8281 3.22266 C 48.8281 9.27734 52.3926 12.2559 56.3477 12.2559 Z M 57.8125 4.93164 C 56.6895 4.93164 55.3223 4.15039 55.3223 1.95312 L 55.3223 -72.3633 C 55.3223 -74.5605 56.6895 -75.3418 57.8125 -75.3418 C 58.3984 -75.3418 59.082 -75.1953 60.1074 -74.6094 L 122.754 -37.5977 C 123.975 -36.8652 124.561 -36.3281 124.561 -35.2539 C 124.561 -34.1797 123.926 -33.4961 122.754 -32.8613 L 60.1074 4.15039 C 59.1309 4.73633 58.3984 4.93164 57.8125 4.93164 Z"/>
  </g>
  <g id="Thin-L" transform="matrix(1 0 0 1 790.162 1556)">
   <path d="M 17.2363 13.2324 C 18.3105 13.2324 19.2383 12.3535 19.2383 11.2305 L 19.2383 -81.6406 C 19.2383 -82.7148 18.3105 -83.5938 17.2363 -83.5938 C 16.1133 -83.5938 15.2344 -82.7148 15.2344 -81.6406 L 15.2344 11.2305 C 15.2344 12.3535 16.1133 13.2324 17.2363 13.2324 Z M 47.168 10.7422 C 48.9258 10.7422 50.8789 9.86328 52.3926 8.98438 L 118.018 -29.5898 C 120.166 -30.9082 121.533 -32.7148 121.533 -35.2539 C 121.533 -37.793 120.264 -39.502 118.018 -40.8203 L 52.3926 -79.4434 C 50.8301 -80.3223 48.9258 -81.2012 47.168 -81.2012 C 43.8965 -81.2012 40.7227 -78.7598 40.7227 -73.4375 L 40.7227 2.97852 C 40.7227 8.34961 43.8965 10.7422 47.168 10.7422 Z M 47.5586 6.64062 C 46.3379 6.64062 44.5312 5.71289 44.5312 2.83203 L 44.5312 -73.291 C 44.5312 -76.1719 46.3379 -77.0996 47.5586 -77.0996 C 48.3398 -77.0996 49.1211 -76.9531 50.4883 -76.1719 L 115.234 -38.0371 C 116.699 -37.207 117.383 -36.5234 117.383 -35.2539 C 117.383 -34.0332 116.602 -33.2031 115.234 -32.4219 L 50.4883 5.71289 C 49.1699 6.49414 48.3398 6.64062 47.5586 6.64062 Z"/>
  </g>
  <g id="Ultralight-L" transform="matrix(1 0 0 1 495.942 1556)">
   <path d="M 13.4766 12.4512 C 14.1602 12.4512 14.6973 11.8652 14.6973 11.1816 L 14.6973 -81.543 C 14.6973 -82.2266 14.1602 -82.8125 13.4766 -82.8125 C 12.793 -82.8125 12.207 -82.2266 12.207 -81.543 L 12.207 11.1816 C 12.207 11.8652 12.793 12.4512 13.4766 12.4512 Z M 42.4316 9.96094 C 44.043 9.96094 45.9473 9.0332 47.2168 8.30078 L 113.135 -30.4688 C 114.844 -31.4453 116.064 -32.959 116.064 -35.2539 C 116.064 -37.5977 114.893 -38.9648 113.135 -40.0391 L 47.2168 -78.8086 C 45.8496 -79.541 44.043 -80.4199 42.4316 -80.4199 C 39.5508 -80.4199 36.6211 -78.3203 36.6211 -73.3398 L 36.6211 2.88086 C 36.6211 7.86133 39.5508 9.96094 42.4316 9.96094 Z M 42.334 7.51953 C 41.0156 7.51953 38.9648 6.54297 38.9648 3.32031 L 38.9648 -73.7793 C 38.9648 -77.002 41.0156 -78.0273 42.334 -78.0273 C 43.1641 -78.0273 44.043 -77.832 45.5566 -77.002 L 111.377 -38.2812 C 112.939 -37.3535 113.721 -36.6211 113.721 -35.2539 C 113.721 -33.9355 112.891 -33.0078 111.377 -32.1777 L 45.5566 6.54297 C 44.0918 7.37305 43.1641 7.51953 42.334 7.51953 Z"/>
  </g>
  <g id="Black-M" transform="matrix(1 0 0 1 2863.16 1126)">
   <path d="M 31.2012 9.81445 C 37.793 9.81445 42.5293 5.17578 42.5293 -1.17188 L 42.5293 -69.2871 C 42.5293 -75.6348 37.793 -80.2734 31.2012 -80.2734 C 24.5605 -80.2734 19.8242 -75.6348 19.8242 -69.2871 L 19.8242 -1.17188 C 19.8242 5.17578 24.5605 9.81445 31.2012 9.81445 Z M 66.2109 8.49609 C 69.0918 8.49609 71.8262 7.86133 74.5117 6.29883 L 125.879 -23.584 C 130.518 -26.2695 134.229 -29.7852 134.229 -35.3027 C 134.229 -40.8691 130.713 -43.9941 125.879 -46.8262 L 74.5117 -76.6602 C 71.7773 -78.2227 68.9941 -78.8574 66.0645 -78.8574 C 59.668 -78.8574 54.2969 -74.1699 54.2969 -65.8691 L 54.2969 -4.54102 C 54.2969 3.71094 59.7656 8.49609 66.2109 8.49609 Z M 72.5098 -13.0859 C 72.3145 -13.0859 72.2656 -13.2324 72.2656 -13.3789 L 72.2656 -56.9824 C 72.2656 -57.1777 72.3145 -57.2754 72.5586 -57.2754 C 72.7051 -57.2754 72.8027 -57.3242 72.998 -57.1777 L 110.693 -35.5469 C 110.84 -35.498 110.84 -35.4492 110.84 -35.2539 C 110.84 -35.1074 110.742 -34.9609 110.693 -34.9121 L 72.998 -13.2324 C 72.9004 -13.1348 72.7051 -13.0859 72.5098 -13.0859 Z"/>
  </g>
  <g id="Heavy-M" transform="matrix(1 0 0 1 2568.87 1126)">
   <path d="M 30.0781 8.74023 C 35.6934 8.74023 39.7461 4.73633 39.7461 -0.634766 L 39.7461 -69.8242 C 39.7461 -75.1953 35.6934 -79.1504 30.0781 -79.1504 C 24.4629 -79.1504 20.4102 -75.1953 20.4102 -69.8242 L 20.4102 -0.634766 C 20.4102 4.73633 24.4629 8.74023 30.0781 8.74023 Z M 63.0859 7.22656 C 65.7715 7.22656 68.2617 6.5918 70.8008 5.12695 L 121.777 -24.6094 C 126.123 -27.1484 129.297 -30.4199 129.297 -35.3027 C 129.297 -40.1855 126.27 -43.1641 121.777 -45.8008 L 70.8008 -75.5371 C 68.2129 -77.002 65.7227 -77.6367 62.9883 -77.6367 C 57.1777 -77.6367 52.3438 -73.3398 52.3438 -65.7227 L 52.3438 -4.6875 C 52.3438 2.88086 57.2754 7.22656 63.0859 7.22656 Z M 68.4082 -11.377 C 68.1152 -11.377 67.9199 -11.5723 67.9199 -11.9629 L 67.9199 -58.4473 C 67.9199 -58.7891 68.1152 -58.9844 68.457 -58.9844 C 68.6523 -58.9844 68.7988 -58.9844 69.0918 -58.8379 L 108.838 -35.791 C 109.082 -35.6445 109.18 -35.5469 109.18 -35.2539 C 109.18 -34.9609 109.033 -34.7656 108.838 -34.668 L 69.0918 -11.5723 C 68.8965 -11.4746 68.6523 -11.377 68.4082 -11.377 Z"/>
  </g>
  <g id="Bold-M" transform="matrix(1 0 0 1 2274.82 1126)">
   <path d="M 28.8086 7.4707 C 33.3008 7.4707 36.6211 4.24805 36.6211 -0.0488281 L 36.6211 -70.3613 C 36.6211 -74.6582 33.3008 -77.9297 28.8086 -77.9297 C 24.3652 -77.9297 21.0449 -74.6582 21.0449 -70.3613 L 21.0449 -0.0488281 C 21.0449 4.24805 24.3652 7.4707 28.8086 7.4707 Z M 59.6191 5.81055 C 62.0605 5.81055 64.2578 5.17578 66.6016 3.80859 L 117.139 -25.7812 C 121.191 -28.125 123.779 -31.1035 123.779 -35.2539 C 123.779 -39.4531 121.289 -42.1875 117.139 -44.6289 L 66.6016 -74.2188 C 64.209 -75.5859 62.0117 -76.2207 59.5703 -76.2207 C 54.4434 -76.2207 50.1465 -72.4121 50.1465 -65.5273 L 50.1465 -4.88281 C 50.1465 1.95312 54.4922 5.81055 59.6191 5.81055 Z M 63.8672 -9.47266 C 63.4277 -9.47266 63.0859 -9.76562 63.0859 -10.3516 L 63.0859 -60.0586 C 63.0859 -60.6445 63.4277 -60.9375 63.8672 -60.9375 C 64.1113 -60.9375 64.3555 -60.8398 64.6973 -60.6445 L 106.738 -36.084 C 107.178 -35.8398 107.324 -35.6445 107.324 -35.2539 C 107.324 -34.8145 107.129 -34.5703 106.738 -34.375 L 64.6973 -9.76562 C 64.4043 -9.57031 64.1113 -9.47266 63.8672 -9.47266 Z"/>
  </g>
  <g id="Semibold-M" transform="matrix(1 0 0 1 1979.96 1126)">
   <path d="M 27.9785 6.64062 C 31.6406 6.64062 34.4238 3.90625 34.4238 0.341797 L 34.4238 -70.752 C 34.4238 -74.3652 31.6406 -77.0508 27.9785 -77.0508 C 24.3164 -77.0508 21.5332 -74.3652 21.5332 -70.752 L 21.5332 0.341797 C 21.5332 3.90625 24.3164 6.64062 27.9785 6.64062 Z M 57.2266 4.83398 C 59.5215 4.83398 61.5234 4.19922 63.7207 2.92969 L 113.965 -26.5625 C 117.822 -28.8086 120.02 -31.5918 120.02 -35.2539 C 120.02 -38.916 117.871 -41.5527 113.965 -43.8477 L 63.7207 -73.3398 C 61.4746 -74.6094 59.4727 -75.2441 57.1777 -75.2441 C 52.5391 -75.2441 48.6328 -71.7773 48.6328 -65.4297 L 48.6328 -4.98047 C 48.6328 1.31836 52.5879 4.83398 57.2266 4.83398 Z M 60.6934 -8.1543 C 60.1562 -8.1543 59.7168 -8.54492 59.7168 -9.27734 L 59.7168 -61.1328 C 59.7168 -61.8652 60.1562 -62.207 60.6934 -62.207 C 60.9863 -62.207 61.2793 -62.1582 61.6699 -61.9141 L 105.322 -36.2305 C 105.811 -35.9863 106.055 -35.7422 106.055 -35.2051 C 106.055 -34.7168 105.811 -34.4727 105.322 -34.1797 L 61.6699 -8.49609 C 61.2793 -8.30078 60.9863 -8.1543 60.6934 -8.1543 Z"/>
  </g>
  <g id="Medium-M" transform="matrix(1 0 0 1 1684.67 1126)">
   <path d="M 27.3438 5.95703 C 30.4199 5.95703 32.8125 3.66211 32.8125 0.634766 L 32.8125 -71.0449 C 32.8125 -74.0723 30.4199 -76.3672 27.3438 -76.3672 C 24.2676 -76.3672 21.875 -74.0723 21.875 -71.0449 L 21.875 0.634766 C 21.875 3.66211 24.2676 5.95703 27.3438 5.95703 Z M 55.4199 4.10156 C 57.5684 4.10156 59.4238 3.4668 61.5234 2.24609 L 111.572 -27.1484 C 115.234 -29.2969 117.139 -31.9336 117.139 -35.2539 C 117.139 -38.5254 115.283 -41.0645 111.572 -43.2617 L 61.5234 -72.6562 C 59.375 -73.877 57.5684 -74.5117 55.3711 -74.5117 C 51.0742 -74.5117 47.5098 -71.2891 47.5098 -65.332 L 47.5098 -5.07812 C 47.5098 0.878906 51.123 4.10156 55.4199 4.10156 Z M 58.3008 -7.17773 C 57.666 -7.17773 57.1777 -7.56836 57.1777 -8.44727 L 57.1777 -61.9629 C 57.1777 -62.8418 57.666 -63.2324 58.3008 -63.2324 C 58.5938 -63.2324 58.9355 -63.1348 59.375 -62.8906 L 104.199 -36.377 C 104.785 -36.084 105.078 -35.791 105.078 -35.2051 C 105.078 -34.668 104.785 -34.3262 104.199 -34.0332 L 59.375 -7.51953 C 58.9355 -7.27539 58.5938 -7.17773 58.3008 -7.17773 Z"/>
  </g>
  <g id="Regular-M" transform="matrix(1 0 0 1 1389.79 1126)">
   <path d="M 26.4648 5.12695 C 28.7598 5.12695 30.6641 3.36914 30.6641 1.07422 L 30.6641 -71.4355 C 30.6641 -73.7305 28.7598 -75.5371 26.4648 -75.5371 C 24.1699 -75.5371 22.3145 -73.7305 22.3145 -71.4355 L 22.3145 1.07422 C 22.3145 3.36914 24.1699 5.12695 26.4648 5.12695 Z M 53.0273 3.17383 C 55.0293 3.17383 56.6895 2.53906 58.6914 1.36719 L 108.447 -27.9297 C 111.865 -29.9805 113.379 -32.4219 113.379 -35.2051 C 113.379 -37.9883 111.914 -40.4297 108.447 -42.4805 L 58.6914 -71.7773 C 56.6895 -72.9492 55.0293 -73.584 53.0273 -73.584 C 49.2188 -73.584 45.9961 -70.6543 45.9961 -65.1855 L 45.9961 -5.22461 C 45.9961 0.244141 49.2188 3.17383 53.0273 3.17383 Z M 55.1758 -5.85938 C 54.4922 -5.85938 53.8574 -6.34766 53.8574 -7.32422 L 53.8574 -63.0859 C 53.8574 -64.0625 54.4922 -64.5508 55.1758 -64.5508 C 55.5176 -64.5508 55.9082 -64.4043 56.3965 -64.1113 L 102.783 -36.5723 C 103.467 -36.1816 103.857 -35.8887 103.857 -35.2051 C 103.857 -34.5703 103.467 -34.2285 102.783 -33.8379 L 56.3965 -6.29883 C 55.9082 -6.00586 55.5176 -5.85938 55.1758 -5.85938 Z"/>
  </g>
  <g id="Light-M" transform="matrix(1 0 0 1 1096.37 1126)">
   <path d="M 21.5332 4.05273 C 23.2422 4.05273 24.707 2.68555 24.707 0.976562 L 24.707 -71.3379 C 24.707 -73.0957 23.2422 -74.4629 21.5332 -74.4629 C 19.7754 -74.4629 18.3105 -73.0957 18.3105 -71.3379 L 18.3105 0.976562 C 18.3105 2.68555 19.7754 4.05273 21.5332 4.05273 Z M 46.8262 2.09961 C 48.584 2.09961 50.1465 1.46484 51.8066 0.488281 L 102.002 -29.0527 C 104.785 -30.7129 106.104 -32.7637 106.104 -35.2051 C 106.104 -37.6953 104.834 -39.6973 102.002 -41.3574 L 51.8066 -70.8984 C 50.1465 -71.875 48.584 -72.5586 46.8262 -72.5586 C 43.457 -72.5586 40.5273 -70.0195 40.5273 -65.0391 L 40.5273 -5.37109 C 40.5273 -0.390625 43.457 2.09961 46.8262 2.09961 Z M 48.2422 -4.6875 C 47.4609 -4.6875 46.5332 -5.27344 46.5332 -6.73828 L 46.5332 -63.7207 C 46.5332 -65.1855 47.4609 -65.7227 48.2422 -65.7227 C 48.6816 -65.7227 49.1211 -65.5762 49.8535 -65.1855 L 97.6562 -36.9141 C 98.5352 -36.377 98.9746 -35.9863 98.9746 -35.2051 C 98.9746 -34.4727 98.4863 -33.9844 97.6562 -33.5449 L 49.8535 -5.22461 C 49.1699 -4.83398 48.6816 -4.6875 48.2422 -4.6875 Z"/>
  </g>
  <g id="Thin-M" transform="matrix(1 0 0 1 804.005 1126)">
   <path d="M 14.9414 2.68555 C 15.9668 2.68555 16.7969 1.85547 16.7969 0.830078 L 16.7969 -71.2402 C 16.7969 -72.2656 15.9668 -73.0469 14.9414 -73.0469 C 13.916 -73.0469 13.0859 -72.2656 13.0859 -71.2402 L 13.0859 0.830078 C 13.0859 1.85547 13.916 2.68555 14.9414 2.68555 Z M 38.5254 0.732422 C 39.9902 0.732422 41.5039 0.0488281 42.7734 -0.683594 L 93.5059 -30.5176 C 95.4102 -31.6406 96.4844 -33.2031 96.4844 -35.2539 C 96.4844 -37.3047 95.459 -38.7695 93.5059 -39.9414 L 42.7734 -69.7754 C 41.4551 -70.5078 39.9902 -71.1914 38.5254 -71.1914 C 35.8398 -71.1914 33.3008 -69.1895 33.3008 -64.8926 L 33.3008 -5.56641 C 33.3008 -1.26953 35.8398 0.732422 38.5254 0.732422 Z M 39.1113 -3.125 C 38.1348 -3.125 36.8652 -3.85742 36.8652 -5.9082 L 36.8652 -64.5508 C 36.8652 -66.6016 38.1348 -67.2852 39.1113 -67.2852 C 39.6484 -67.2852 40.2344 -67.1875 41.2109 -66.6016 L 90.918 -37.3047 C 91.9922 -36.6699 92.5293 -36.1816 92.5293 -35.2539 C 92.5293 -34.3262 91.9434 -33.6914 90.918 -33.1543 L 41.2109 -3.80859 C 40.2832 -3.27148 39.6484 -3.125 39.1113 -3.125 Z"/>
  </g>
  <g id="Ultralight-M" transform="matrix(1 0 0 1 509.54 1126)">
   <path d="M 11.5723 1.95312 C 12.207 1.95312 12.7441 1.41602 12.7441 0.78125 L 12.7441 -71.1426 C 12.7441 -71.8262 12.207 -72.3633 11.5723 -72.3633 C 10.8887 -72.3633 10.4004 -71.8262 10.4004 -71.1426 L 10.4004 0.78125 C 10.4004 1.41602 10.8887 1.95312 11.5723 1.95312 Z M 34.3262 0 C 35.5957 0 37.1094 -0.683594 38.1348 -1.26953 L 89.1602 -31.25 C 90.625 -32.1289 91.6016 -33.3984 91.6016 -35.2539 C 91.6016 -37.1094 90.6738 -38.2812 89.1602 -39.209 L 38.1348 -69.1895 C 37.0117 -69.7754 35.5957 -70.459 34.3262 -70.459 C 31.9824 -70.459 29.6387 -68.75 29.6387 -64.7949 L 29.6387 -5.66406 C 29.6387 -1.70898 31.9824 0 34.3262 0 Z M 34.375 -2.34375 C 33.3984 -2.34375 31.8848 -3.125 31.8848 -5.51758 L 31.8848 -64.9414 C 31.8848 -67.334 33.3984 -68.1152 34.375 -68.1152 C 35.0098 -68.1152 35.6445 -67.9688 36.7676 -67.334 L 87.4512 -37.5 C 88.6719 -36.8164 89.209 -36.2793 89.209 -35.2539 C 89.209 -34.2773 88.623 -33.5449 87.4512 -32.959 L 36.7676 -3.125 C 35.6934 -2.49023 35.0098 -2.34375 34.375 -2.34375 Z"/>
  </g>
  <g id="Black-S" transform="matrix(1 0 0 1 2878.52 696)">
   <path d="M 24.4141 0 C 29.541 0 33.2031 -3.61328 33.2031 -8.49609 L 33.2031 -61.9629 C 33.2031 -66.8457 29.541 -70.459 24.4141 -70.459 C 19.2871 -70.459 15.625 -66.8457 15.625 -61.9629 L 15.625 -8.49609 C 15.625 -3.61328 19.2871 0 24.4141 0 Z M 51.709 -1.07422 C 53.9551 -1.07422 56.1035 -1.5625 58.2031 -2.7832 L 98.3887 -26.1719 C 102.002 -28.2715 104.883 -31.0059 104.883 -35.3027 C 104.883 -39.5996 102.148 -42.041 98.3887 -44.2383 L 58.2031 -67.627 C 56.0547 -68.8477 53.9062 -69.3359 51.6113 -69.3359 C 46.6309 -69.3359 42.4805 -65.6738 42.4805 -59.2285 L 42.4805 -11.1816 C 42.4805 -4.78516 46.7285 -1.07422 51.709 -1.07422 Z M 56.5918 -17.7734 C 56.4453 -17.7734 56.3965 -17.8711 56.3965 -18.0176 L 56.3965 -52.3926 C 56.3965 -52.5391 56.4453 -52.6367 56.6406 -52.6367 C 56.7383 -52.6367 56.8359 -52.6367 56.9824 -52.5391 L 86.6699 -35.498 C 86.7676 -35.4492 86.7676 -35.4004 86.7676 -35.2539 C 86.7676 -35.1074 86.7188 -35.0098 86.6699 -34.9609 L 56.9824 -17.8711 C 56.8848 -17.8223 56.7383 -17.7734 56.5918 -17.7734 Z"/>
  </g>
  <g id="Heavy-S" transform="matrix(1 0 0 1 2583.27 696)">
   <path d="M 24.1211 -0.732422 C 28.5156 -0.732422 31.7383 -3.85742 31.7383 -8.10547 L 31.7383 -62.3535 C 31.7383 -66.6016 28.5156 -69.7266 24.1211 -69.7266 C 19.7266 -69.7266 16.5039 -66.6016 16.5039 -62.3535 L 16.5039 -8.10547 C 16.5039 -3.85742 19.7266 -0.732422 24.1211 -0.732422 Z M 50.0488 -1.9043 C 52.1484 -1.9043 54.1016 -2.39258 56.1035 -3.56445 L 95.9473 -26.8555 C 99.4141 -28.8574 101.904 -31.4453 101.904 -35.3027 C 101.904 -39.1113 99.5605 -41.4551 95.9473 -43.5547 L 56.1035 -66.8457 C 54.0527 -68.0176 52.0996 -68.5059 49.9512 -68.5059 C 45.3613 -68.5059 41.6016 -65.0879 41.6016 -59.1309 L 41.6016 -11.2793 C 41.6016 -5.32227 45.459 -1.9043 50.0488 -1.9043 Z M 54.248 -16.6016 C 54.0039 -16.6016 53.8574 -16.748 53.8574 -16.9922 L 53.8574 -53.418 C 53.8574 -53.6621 54.0039 -53.8086 54.248 -53.8086 C 54.3945 -53.8086 54.541 -53.8086 54.6875 -53.6621 L 85.791 -35.6445 C 85.9863 -35.5469 86.0352 -35.4492 86.0352 -35.2539 C 86.0352 -35.0098 85.9375 -34.9121 85.791 -34.8145 L 54.6875 -16.748 C 54.541 -16.6504 54.3945 -16.6016 54.248 -16.6016 Z"/>
  </g>
  <g id="Bold-S" transform="matrix(1 0 0 1 2288.2 696)">
   <path d="M 23.7793 -1.5625 C 27.3926 -1.5625 30.0781 -4.15039 30.0781 -7.61719 L 30.0781 -62.793 C 30.0781 -66.2598 27.3926 -68.8965 23.7793 -68.8965 C 20.166 -68.8965 17.5293 -66.2598 17.5293 -62.793 L 17.5293 -7.61719 C 17.5293 -4.15039 20.166 -1.5625 23.7793 -1.5625 Z M 48.1445 -2.88086 C 50.0977 -2.88086 51.8555 -3.36914 53.7598 -4.44336 L 93.2129 -27.5879 C 96.5332 -29.541 98.584 -31.9336 98.584 -35.2539 C 98.584 -38.5742 96.6309 -40.8203 93.2129 -42.8223 L 53.7598 -65.9668 C 51.8066 -67.041 50.0977 -67.5293 48.0957 -67.5293 C 43.9941 -67.5293 40.5762 -64.502 40.5762 -58.9844 L 40.5762 -11.4258 C 40.5762 -5.95703 44.043 -2.88086 48.1445 -2.88086 Z M 51.6113 -15.2832 C 51.2695 -15.2832 51.0742 -15.4785 51.0742 -15.8691 L 51.0742 -54.5898 C 51.0742 -54.9316 51.2695 -55.127 51.6113 -55.127 C 51.7578 -55.127 51.9531 -55.0781 52.1484 -54.9316 L 84.8145 -35.8398 C 85.1074 -35.6445 85.2539 -35.5469 85.2539 -35.2539 C 85.2539 -34.9121 85.1074 -34.7656 84.8145 -34.6191 L 52.1484 -15.4785 C 51.9531 -15.3809 51.7578 -15.2832 51.6113 -15.2832 Z"/>
  </g>
  <g id="Semibold-S" transform="matrix(1 0 0 1 1992.63 696)">
   <path d="M 23.5352 -2.09961 C 26.6113 -2.09961 28.9062 -4.3457 28.9062 -7.32422 L 28.9062 -63.1348 C 28.9062 -66.0645 26.6113 -68.3105 23.5352 -68.3105 C 20.5078 -68.3105 18.2129 -66.0645 18.2129 -63.1348 L 18.2129 -7.32422 C 18.2129 -4.3457 20.5078 -2.09961 23.5352 -2.09961 Z M 46.875 -3.51562 C 48.7305 -3.51562 50.293 -4.00391 52.0996 -5.07812 L 91.3574 -28.0762 C 94.5801 -29.9805 96.3379 -32.2754 96.3379 -35.2539 C 96.3379 -38.1836 94.6289 -40.3809 91.3574 -42.334 L 52.0996 -65.332 C 50.2441 -66.4062 48.6816 -66.8945 46.8262 -66.8945 C 43.0176 -66.8945 39.8926 -64.0625 39.8926 -58.9355 L 39.8926 -11.4746 C 39.8926 -6.39648 43.0664 -3.51562 46.875 -3.51562 Z M 49.7559 -14.4043 C 49.3652 -14.4043 49.1211 -14.6484 49.1211 -15.0391 L 49.1211 -55.3711 C 49.1211 -55.7617 49.3652 -56.0059 49.8047 -56.0059 C 49.9512 -56.0059 50.1465 -55.957 50.3906 -55.8105 L 84.1797 -35.9375 C 84.5215 -35.7422 84.668 -35.5957 84.668 -35.2051 C 84.668 -34.8633 84.4727 -34.668 84.1797 -34.4727 L 50.3906 -14.5996 C 50.1953 -14.4531 49.9512 -14.4043 49.7559 -14.4043 Z"/>
  </g>
  <g id="Medium-S" transform="matrix(1 0 0 1 1696.78 696)">
   <path d="M 23.3887 -2.53906 C 25.9766 -2.53906 28.0273 -4.49219 28.0273 -7.08008 L 28.0273 -63.3301 C 28.0273 -65.918 25.9766 -67.8711 23.3887 -67.8711 C 20.752 -67.8711 18.7012 -65.918 18.7012 -63.3301 L 18.7012 -7.08008 C 18.7012 -4.49219 20.752 -2.53906 23.3887 -2.53906 Z M 45.8496 -4.00391 C 47.6562 -4.00391 49.1211 -4.49219 50.8789 -5.51758 L 89.9414 -28.4668 C 93.0664 -30.3223 94.5801 -32.5195 94.5801 -35.2051 C 94.5801 -37.9395 93.0664 -40.0879 89.9414 -41.9434 L 50.8789 -64.8926 C 49.0723 -65.918 47.6562 -66.4062 45.8496 -66.4062 C 42.2852 -66.4062 39.4043 -63.7207 39.4043 -58.8379 L 39.4043 -11.5723 C 39.4043 -6.68945 42.334 -4.00391 45.8496 -4.00391 Z M 48.3887 -13.7207 C 47.9492 -13.7207 47.6562 -13.9648 47.6562 -14.4531 L 47.6562 -55.957 C 47.6562 -56.4453 47.9492 -56.6895 48.3887 -56.6895 C 48.584 -56.6895 48.8281 -56.6406 49.0723 -56.4941 L 83.6426 -36.0352 C 84.0332 -35.791 84.2773 -35.5957 84.2773 -35.2051 C 84.2773 -34.8145 84.0332 -34.6191 83.6426 -34.4238 L 49.0723 -13.916 C 48.8281 -13.7695 48.584 -13.7207 48.3887 -13.7207 Z"/>
  </g>
  <g id="Regular-S" transform="matrix(1 0 0 1 1401.19 696)">
   <path d="M 23.1445 -3.07617 C 25.1953 -3.07617 26.9043 -4.6875 26.9043 -6.73828 L 26.9043 -63.6719 C 26.9043 -65.7227 25.1953 -67.334 23.1445 -67.334 C 21.0938 -67.334 19.3848 -65.7227 19.3848 -63.6719 L 19.3848 -6.73828 C 19.3848 -4.6875 21.0938 -3.07617 23.1445 -3.07617 Z M 44.5801 -4.63867 C 46.2402 -4.63867 47.5586 -5.12695 49.2676 -6.15234 L 88.0859 -29.0039 C 91.0645 -30.7617 92.334 -32.8613 92.334 -35.2051 C 92.334 -37.5488 91.1133 -39.6484 88.0859 -41.4551 L 49.2676 -64.2578 C 47.5586 -65.2832 46.2402 -65.7715 44.5801 -65.7715 C 41.3574 -65.7715 38.7207 -63.2812 38.7207 -58.7891 L 38.7207 -11.6211 C 38.7207 -7.12891 41.3574 -4.63867 44.5801 -4.63867 Z M 46.582 -12.793 C 46.0938 -12.793 45.752 -13.1348 45.752 -13.6719 L 45.752 -56.7383 C 45.752 -57.2754 46.0938 -57.6172 46.582 -57.6172 C 46.7773 -57.6172 47.0703 -57.5195 47.3145 -57.3242 L 83.0078 -36.1328 C 83.4473 -35.8887 83.7402 -35.6445 83.7402 -35.2051 C 83.7402 -34.7656 83.4473 -34.5215 83.0078 -34.2773 L 47.3145 -13.0859 C 47.0703 -12.8906 46.7773 -12.793 46.582 -12.793 Z"/>
  </g>
  <g id="Light-S" transform="matrix(1 0 0 1 1107.38 696)">
   <path d="M 18.75 -4.05273 C 20.3613 -4.05273 21.6309 -5.27344 21.6309 -6.83594 L 21.6309 -63.5742 C 21.6309 -65.1367 20.3613 -66.3574 18.75 -66.3574 C 17.1875 -66.3574 15.8691 -65.1367 15.8691 -63.5742 L 15.8691 -6.83594 C 15.8691 -5.27344 17.1875 -4.05273 18.75 -4.05273 Z M 39.0625 -5.56641 C 40.5273 -5.56641 41.7969 -6.10352 43.2129 -6.93359 L 82.373 -29.9805 C 84.8145 -31.3965 85.8887 -33.1543 85.8887 -35.2051 C 85.8887 -37.3047 84.8145 -39.0137 82.373 -40.4785 L 43.2129 -63.5254 C 41.7969 -64.3555 40.5273 -64.8438 39.0625 -64.8438 C 36.2793 -64.8438 33.8867 -62.7441 33.8867 -58.6426 L 33.8867 -11.7676 C 33.8867 -7.71484 36.2793 -5.56641 39.0625 -5.56641 Z M 40.4785 -11.7676 C 39.8438 -11.7676 39.2578 -12.1582 39.2578 -13.1348 L 39.2578 -57.2754 C 39.2578 -58.252 39.8438 -58.6426 40.4785 -58.6426 C 40.7715 -58.6426 41.0645 -58.5449 41.5527 -58.3008 L 78.4668 -36.4258 C 79.1016 -36.084 79.3945 -35.791 79.3945 -35.2051 C 79.3945 -34.668 79.1016 -34.3262 78.4668 -34.0332 L 41.5527 -12.1094 C 41.1133 -11.8652 40.7715 -11.7676 40.4785 -11.7676 Z"/>
  </g>
  <g id="Thin-S" transform="matrix(1 0 0 1 814.528 696)">
   <path d="M 12.9395 -5.27344 C 13.8672 -5.27344 14.6484 -6.00586 14.6484 -6.93359 L 14.6484 -63.4766 C 14.6484 -64.4043 13.8672 -65.1367 12.9395 -65.1367 C 12.0117 -65.1367 11.2305 -64.4043 11.2305 -63.4766 L 11.2305 -6.93359 C 11.2305 -6.00586 12.0117 -5.27344 12.9395 -5.27344 Z M 31.7383 -6.78711 C 32.959 -6.78711 34.1797 -7.32422 35.2051 -7.95898 L 74.8535 -31.25 C 76.5137 -32.2266 77.4414 -33.5449 77.4414 -35.2539 C 77.4414 -36.9629 76.5625 -38.1836 74.8535 -39.209 L 35.2051 -62.5 C 34.1309 -63.1348 32.959 -63.6719 31.7383 -63.6719 C 29.541 -63.6719 27.4902 -62.0117 27.4902 -58.4961 L 27.4902 -11.9629 C 27.4902 -8.44727 29.541 -6.78711 31.7383 -6.78711 Z M 32.373 -10.4004 C 31.6406 -10.4004 30.7129 -10.8887 30.7129 -12.4023 L 30.7129 -58.0078 C 30.7129 -59.5215 31.6406 -60.0586 32.373 -60.0586 C 32.7637 -60.0586 33.2031 -59.9609 33.9355 -59.5703 L 72.5098 -36.7676 C 73.3398 -36.3281 73.7305 -35.9375 73.7305 -35.2539 C 73.7305 -34.5703 73.291 -34.082 72.5098 -33.6914 L 33.9355 -10.8887 C 33.252 -10.498 32.7637 -10.4004 32.373 -10.4004 Z"/>
  </g>
  <g id="Ultralight-S" transform="matrix(1 0 0 1 519.794 696)">
   <path d="M 9.96094 -5.9082 C 10.5957 -5.9082 11.084 -6.39648 11.084 -7.03125 L 11.084 -63.3789 C 11.084 -64.0137 10.5957 -64.502 9.96094 -64.502 C 9.32617 -64.502 8.83789 -64.0137 8.83789 -63.3789 L 8.83789 -7.03125 C 8.83789 -6.39648 9.32617 -5.9082 9.96094 -5.9082 Z M 28.0273 -7.42188 C 29.0527 -7.42188 30.2246 -7.95898 31.1035 -8.49609 L 70.9961 -31.9336 C 72.2656 -32.666 73.0469 -33.7402 73.0469 -35.2539 C 73.0469 -36.7676 72.3145 -37.7441 70.9961 -38.5254 L 31.1035 -61.9629 C 30.1758 -62.5 29.0527 -63.0371 28.0273 -63.0371 C 26.0742 -63.0371 24.1699 -61.6211 24.1699 -58.3984 L 24.1699 -12.0605 C 24.1699 -8.83789 26.0742 -7.42188 28.0273 -7.42188 Z M 28.2227 -9.66797 C 27.4414 -9.66797 26.3184 -10.2539 26.3184 -12.0605 L 26.3184 -58.3984 C 26.3184 -60.2051 27.4414 -60.791 28.2227 -60.791 C 28.6621 -60.791 29.1504 -60.6934 29.9805 -60.2051 L 69.4336 -36.9629 C 70.3613 -36.4258 70.8008 -36.0352 70.8008 -35.2539 C 70.8008 -34.4727 70.3125 -33.9844 69.4336 -33.4961 L 29.9805 -10.2539 C 29.1992 -9.76562 28.6621 -9.66797 28.2227 -9.66797 Z"/>
  </g>
 </g>
</svg>
